<mxfile host="app.diagrams.net" modified="2024-07-01T19:12:19.141Z" agent="Mozilla/5.0 (Windows NT 10.0; Win64; x64; rv:127.0) Gecko/20100101 Firefox/127.0" etag="NNJsBymk_p6F-7SGXGgL" version="24.6.4" type="github" pages="2">
  <diagram name="Page-1" id="65YjzqpJo_JQ1YnaY64E">
    <mxGraphModel dx="1194" dy="696" grid="1" gridSize="10" guides="1" tooltips="1" connect="1" arrows="1" fold="1" page="1" pageScale="1" pageWidth="850" pageHeight="1100" math="0" shadow="0">
      <root>
        <mxCell id="0" />
        <mxCell id="1" parent="0" />
        <mxCell id="w1mB3s-Ou0QRZiZ1Jg5N-1" value="" style="rounded=1;whiteSpace=wrap;html=1;" vertex="1" parent="1">
          <mxGeometry x="50" y="160" width="400" height="400" as="geometry" />
        </mxCell>
        <mxCell id="w1mB3s-Ou0QRZiZ1Jg5N-2" value="Admin" style="text;html=1;align=center;verticalAlign=middle;whiteSpace=wrap;rounded=0;fontSize=70;" vertex="1" parent="1">
          <mxGeometry x="250" y="80" width="450" height="30" as="geometry" />
        </mxCell>
        <mxCell id="w1mB3s-Ou0QRZiZ1Jg5N-4" value="ادخل اسم التصنيف" style="rounded=1;whiteSpace=wrap;html=1;" vertex="1" parent="1">
          <mxGeometry x="110" y="285" width="320" height="150" as="geometry" />
        </mxCell>
        <mxCell id="w1mB3s-Ou0QRZiZ1Jg5N-5" value="" style="rounded=1;whiteSpace=wrap;html=1;" vertex="1" parent="1">
          <mxGeometry x="210" y="380" width="110" height="25" as="geometry" />
        </mxCell>
        <mxCell id="w1mB3s-Ou0QRZiZ1Jg5N-6" value="" style="rounded=1;whiteSpace=wrap;html=1;" vertex="1" parent="1">
          <mxGeometry x="510" y="149" width="400" height="400" as="geometry" />
        </mxCell>
        <mxCell id="w1mB3s-Ou0QRZiZ1Jg5N-7" value="Form Builder" style="text;html=1;align=center;verticalAlign=middle;whiteSpace=wrap;rounded=0;" vertex="1" parent="1">
          <mxGeometry x="625" y="330" width="170" height="30" as="geometry" />
        </mxCell>
        <mxCell id="w1mB3s-Ou0QRZiZ1Jg5N-8" value="حفظ" style="rounded=1;whiteSpace=wrap;html=1;" vertex="1" parent="1">
          <mxGeometry x="680" y="500" width="80" height="20" as="geometry" />
        </mxCell>
        <mxCell id="w1mB3s-Ou0QRZiZ1Jg5N-9" style="edgeStyle=orthogonalEdgeStyle;rounded=0;orthogonalLoop=1;jettySize=auto;html=1;entryX=0.003;entryY=0.528;entryDx=0;entryDy=0;entryPerimeter=0;" edge="1" parent="1" source="w1mB3s-Ou0QRZiZ1Jg5N-1" target="w1mB3s-Ou0QRZiZ1Jg5N-6">
          <mxGeometry relative="1" as="geometry" />
        </mxCell>
        <mxCell id="0cvpAOEkrS6J78ajc1Qn-1" value="عمل تصنيف" style="rounded=0;whiteSpace=wrap;html=1;" vertex="1" parent="1">
          <mxGeometry x="190" y="240" width="120" height="30" as="geometry" />
        </mxCell>
        <mxCell id="0cvpAOEkrS6J78ajc1Qn-2" value="Child Category&lt;br&gt;&lt;br&gt;نفسه &lt;br&gt;بالوكاله&lt;br&gt;شركه" style="text;html=1;align=center;verticalAlign=middle;resizable=0;points=[];autosize=1;strokeColor=none;fillColor=none;" vertex="1" parent="1">
          <mxGeometry x="180" y="588" width="100" height="90" as="geometry" />
        </mxCell>
        <mxCell id="0cvpAOEkrS6J78ajc1Qn-4" style="edgeStyle=orthogonalEdgeStyle;rounded=0;orthogonalLoop=1;jettySize=auto;html=1;entryX=0.05;entryY=0.983;entryDx=0;entryDy=0;entryPerimeter=0;" edge="1" parent="1" source="0cvpAOEkrS6J78ajc1Qn-2" target="w1mB3s-Ou0QRZiZ1Jg5N-6">
          <mxGeometry relative="1" as="geometry" />
        </mxCell>
      </root>
    </mxGraphModel>
  </diagram>
  <diagram id="28DGomel0qeP0eqZA8Fp" name="Page-2">
    <mxGraphModel dx="1194" dy="696" grid="1" gridSize="10" guides="1" tooltips="1" connect="1" arrows="1" fold="1" page="1" pageScale="1" pageWidth="850" pageHeight="1100" math="0" shadow="0">
      <root>
        <mxCell id="0" />
        <mxCell id="1" parent="0" />
        <mxCell id="rG2PQ08rdLgAqbsal9g5-1" value="" style="rounded=1;whiteSpace=wrap;html=1;" vertex="1" parent="1">
          <mxGeometry x="70" y="120" width="720" height="520" as="geometry" />
        </mxCell>
        <mxCell id="rG2PQ08rdLgAqbsal9g5-2" value="" style="rounded=1;whiteSpace=wrap;html=1;" vertex="1" parent="1">
          <mxGeometry x="130" y="220" width="600" height="350" as="geometry" />
        </mxCell>
        <mxCell id="rG2PQ08rdLgAqbsal9g5-3" value="" style="rounded=0;whiteSpace=wrap;html=1;" vertex="1" parent="1">
          <mxGeometry x="150" y="180" width="560" height="40" as="geometry" />
        </mxCell>
        <mxCell id="rG2PQ08rdLgAqbsal9g5-4" value="الطرف الاول" style="rounded=1;whiteSpace=wrap;html=1;" vertex="1" parent="1">
          <mxGeometry x="590" y="180" width="120" height="40" as="geometry" />
        </mxCell>
        <mxCell id="rG2PQ08rdLgAqbsal9g5-5" value="الطرف الثاني" style="rounded=1;whiteSpace=wrap;html=1;labelBackgroundColor=#BFBFBF;fillColor=#e1d5e7;strokeColor=#9673a6;" vertex="1" parent="1">
          <mxGeometry x="470" y="180" width="120" height="40" as="geometry" />
        </mxCell>
        <mxCell id="rG2PQ08rdLgAqbsal9g5-6" value="المرفقات" style="rounded=1;whiteSpace=wrap;html=1;labelBackgroundColor=#BFBFBF;fillColor=#e1d5e7;strokeColor=#9673a6;" vertex="1" parent="1">
          <mxGeometry x="350" y="180" width="120" height="40" as="geometry" />
        </mxCell>
        <mxCell id="rG2PQ08rdLgAqbsal9g5-7" value="اختر التصنيف" style="rounded=1;whiteSpace=wrap;html=1;" vertex="1" parent="1">
          <mxGeometry x="500" y="230" width="190" height="40" as="geometry" />
        </mxCell>
        <mxCell id="rG2PQ08rdLgAqbsal9g5-9" value="" style="shape=singleArrow;direction=south;whiteSpace=wrap;html=1;" vertex="1" parent="1">
          <mxGeometry x="500" y="230" width="30" height="40" as="geometry" />
        </mxCell>
        <mxCell id="rG2PQ08rdLgAqbsal9g5-10" value="Render Form" style="rounded=1;whiteSpace=wrap;html=1;" vertex="1" parent="1">
          <mxGeometry x="180" y="280" width="510" height="240" as="geometry" />
        </mxCell>
      </root>
    </mxGraphModel>
  </diagram>
</mxfile>
